<svg width="60" height="60" viewBox="0 0 60 60" fill="none" xmlns="http://www.w3.org/2000/svg">
<path d="M60 30C60 46.5683 46.5683 60 30 60C13.4333 60 0 46.5683 0 30C0 13.4333 13.4333 0 30 0C46.5683 0 60 13.4333 60 30Z" fill="#DA2F47"/>
<path d="M42.475 49.7984C42.4 49.5 40.5284 42.5 30 42.5C19.47 42.5 17.6 49.5 17.525 49.7984C17.4334 50.16 17.5967 50.535 17.92 50.7217C18.245 50.9034 18.6517 50.8534 18.92 50.5934C18.9517 50.5617 22.1767 47.5 30 47.5C37.8234 47.5 41.05 50.5617 41.08 50.5917C41.24 50.75 41.4534 50.8334 41.6667 50.8334C41.8067 50.8334 41.9484 50.7984 42.0767 50.7267C42.4034 50.54 42.5667 50.1617 42.475 49.7984ZM26.1784 28.8217C20.7534 23.3967 12.035 23.3334 11.6667 23.3334C10.7467 23.3334 10.0017 24.0784 10.0017 24.9967C10 25.9167 10.745 26.6634 11.665 26.6667C11.7134 26.6667 14.8734 26.7034 18.3034 27.895C17.315 28.9617 16.6667 30.6184 16.6667 32.5C16.6667 35.7234 18.5317 38.3334 20.8334 38.3334C23.135 38.3334 25 35.7234 25 32.5C25 32.21 24.9684 31.9334 24.9384 31.655C24.96 31.655 24.98 31.6667 25 31.6667C25.4267 31.6667 25.8534 31.5034 26.1784 31.1784C26.83 30.5267 26.83 29.4734 26.1784 28.8217ZM48.3334 23.3334C47.965 23.3334 39.2484 23.3967 33.8217 28.8217C33.17 29.4734 33.17 30.5267 33.8217 31.1784C34.1467 31.5034 34.5734 31.6667 35 31.6667C35.0217 31.6667 35.04 31.655 35.06 31.655C35.0334 31.9334 35 32.21 35 32.5C35 35.7234 36.865 38.3334 39.1667 38.3334C41.4684 38.3334 43.3334 35.7234 43.3334 32.5C43.3334 30.6184 42.685 28.9617 41.6967 27.895C45.1267 26.7034 48.2867 26.6667 48.3367 26.6667C49.2551 26.6634 50 25.9167 49.9984 24.9967C49.9967 24.0784 49.2534 23.3334 48.3334 23.3334Z" fill="#292F33"/>
</svg>
