<svg width="1733" height="798" viewBox="0 0 1733 798" fill="none" xmlns="http://www.w3.org/2000/svg">
<path d="M0.333252 749.919C0.333252 766.721 0.333252 775.121 3.60306 781.539C6.47926 787.184 11.0687 791.773 16.7135 794.649C23.1309 797.919 31.5317 797.919 48.3333 797.919H1670.07C1698.24 797.919 1712.33 797.919 1720.28 792.021C1727.22 786.88 1731.61 778.999 1732.32 770.394C1733.14 760.522 1725.71 748.554 1710.86 724.616L1356.12 152.751C1351.55 145.384 1349.27 141.7 1346.21 138.903C1343.5 136.426 1340.36 134.466 1336.95 133.121C1333.1 131.603 1328.78 131.168 1320.16 130.296L53.1575 2.31008C34.8552 0.461266 25.704 -0.463144 18.6295 2.5343C12.4154 5.16719 7.27063 9.81846 4.02653 15.7365C0.333252 22.4739 0.333252 31.6716 0.333252 50.067V749.919Z" fill="#26235C"/>
</svg>
