<svg width="60" height="60" viewBox="0 0 60 60" fill="none" xmlns="http://www.w3.org/2000/svg">
<path d="M60 30C60 46.5683 46.5683 60 30 60C13.4333 60 0 46.5683 0 30C0 13.4333 13.4333 0 30 0C46.5683 0 60 13.4333 60 30Z" fill="#FFCC4D"/>
<path d="M30 18.3333C44.5817 18.3333 56.7217 25.8483 59.4267 35.8067C59.7967 33.9267 60 31.9867 60 30C60 13.4333 46.5683 0 30 0C13.4333 0 0 13.4333 0 30C0 31.9867 0.205 33.9267 0.573333 35.8067C3.27833 25.8483 15.42 18.3333 30 18.3333Z" fill="#BDDDF4"/>
<path d="M19.1667 33.3333C21.4679 33.3333 23.3333 30.7216 23.3333 27.5C23.3333 24.2783 21.4679 21.6666 19.1667 21.6666C16.8655 21.6666 15 24.2783 15 27.5C15 30.7216 16.8655 33.3333 19.1667 33.3333Z" fill="#664500"/>
<path d="M40.8334 33.3333C43.1346 33.3333 45.0001 30.7216 45.0001 27.5C45.0001 24.2783 43.1346 21.6666 40.8334 21.6666C38.5322 21.6666 36.6667 24.2783 36.6667 27.5C36.6667 30.7216 38.5322 33.3333 40.8334 33.3333Z" fill="#664500"/>
<path d="M9.99841 20C9.65175 20 9.30008 19.8917 9.00008 19.6667C8.26341 19.115 8.11508 18.07 8.66675 17.3333C14.1034 10.0833 21.3601 10 21.6667 10C22.5867 10 23.3334 10.7467 23.3334 11.6667C23.3334 12.585 22.5917 13.33 21.6734 13.3333C21.4151 13.3367 15.7267 13.4767 11.3334 19.3333C11.0067 19.77 10.5051 20 9.99841 20ZM50.0017 20C49.4934 20 48.9951 19.77 48.6667 19.3333C44.2667 13.465 38.5651 13.3367 38.3234 13.3333C37.4067 13.3233 36.6667 12.5733 36.6717 11.6583C36.6767 10.74 37.4167 10 38.3334 10C38.6401 10 45.8951 10.0833 51.3334 17.3333C51.8867 18.07 51.7367 19.115 51.0001 19.6667C50.7001 19.8917 50.3501 20 50.0017 20ZM39.1417 46.465C39.1234 46.3917 37.2334 39.1667 30.0001 39.1667C22.7667 39.1667 20.8767 46.3917 20.8584 46.465C20.7701 46.82 20.9301 47.1833 21.2434 47.3717C21.5551 47.5583 21.9651 47.515 22.2367 47.2717C22.2551 47.2583 23.9284 45.8333 30.0001 45.8333C35.9817 45.8333 37.6951 47.2167 37.7601 47.2717C37.9184 47.4217 38.1251 47.5 38.3334 47.5C38.4734 47.5 38.6151 47.465 38.7434 47.3933C39.0701 47.2067 39.2334 46.8283 39.1417 46.465Z" fill="#664500"/>
</svg>
