<svg width="35" height="34" viewBox="0 0 35 34" fill="none" xmlns="http://www.w3.org/2000/svg">
<path d="M11.6035 26.8958C11.6035 26.759 11.4668 26.6223 11.2617 26.6223C11.0566 26.6223 10.9199 26.759 10.9199 26.8958C10.9199 27.0325 11.0566 27.1692 11.2617 27.1008C11.4668 27.1008 11.6035 27.0325 11.6035 26.8958ZM9.48437 26.554C9.48437 26.6907 9.62109 26.8958 9.82616 26.8958C9.96288 26.9641 10.168 26.8958 10.2363 26.759C10.2363 26.6223 10.168 26.4856 9.96288 26.4172C9.7578 26.3489 9.55273 26.4172 9.48437 26.554ZM12.5605 26.4856C12.3555 26.4856 12.2187 26.6223 12.2187 26.8274C12.2187 26.9641 12.4238 27.0325 12.6289 26.9641C12.834 26.8958 12.9707 26.8274 12.9023 26.6907C12.9023 26.554 12.6973 26.4172 12.5605 26.4856ZM17.0039 0.235596C7.5703 0.235596 0.324211 7.48169 0.324211 16.9153C0.324211 24.5032 5.04101 30.9973 11.8769 33.3215C12.7656 33.4583 13.0391 32.9114 13.0391 32.5012C13.0391 32.0227 13.0391 29.6985 13.0391 28.2629C13.0391 28.2629 8.2539 29.2883 7.22851 26.2122C7.22851 26.2122 6.47655 24.2297 5.3828 23.7512C5.3828 23.7512 3.81054 22.6575 5.45116 22.6575C5.45116 22.6575 7.16015 22.7942 8.11718 24.4348C9.62109 27.1008 12.082 26.3489 13.1074 25.8704C13.2441 24.7766 13.6543 24.0247 14.2012 23.5461C10.373 23.136 6.47655 22.5891 6.47655 16.0266C6.47655 14.1125 7.02343 13.2239 8.11718 11.9934C7.9121 11.5149 7.36523 9.73755 8.32226 7.34497C9.68945 6.93481 13.0391 9.19067 13.0391 9.19067C14.4062 8.78052 15.8418 8.6438 17.2773 8.6438C18.7812 8.6438 20.2168 8.78052 21.584 9.19067C21.584 9.19067 24.8652 6.86646 26.3008 7.34497C27.2578 9.73755 26.6426 11.5149 26.5059 11.9934C27.5996 13.2239 28.2832 14.1125 28.2832 16.0266C28.2832 22.5891 24.25 23.136 20.4219 23.5461C21.0371 24.093 21.584 25.1184 21.584 26.759C21.584 29.0149 21.5156 31.886 21.5156 32.4329C21.5156 32.9114 21.8574 33.4583 22.7461 33.2532C29.582 30.9973 34.2305 24.5032 34.2305 16.9153C34.2305 7.48169 26.5059 0.235596 17.0039 0.235596ZM6.95507 23.8196C6.81835 23.8879 6.88671 24.093 6.95507 24.2297C7.09179 24.2981 7.22851 24.3665 7.36523 24.2981C7.43359 24.2297 7.43359 24.0247 7.29687 23.8879C7.16015 23.8196 7.02343 23.7512 6.95507 23.8196ZM6.20312 23.2727C6.13476 23.4094 6.20312 23.4778 6.33984 23.5461C6.47655 23.6145 6.61327 23.6145 6.68163 23.4778C6.68163 23.4094 6.61327 23.3411 6.47655 23.2727C6.33984 23.2043 6.27148 23.2043 6.20312 23.2727ZM8.39062 25.7336C8.32226 25.802 8.32226 26.0071 8.52734 26.1438C8.66405 26.2805 8.86913 26.3489 8.93749 26.2122C9.00585 26.1438 9.00585 25.9387 8.86913 25.802C8.73241 25.6653 8.52734 25.5969 8.39062 25.7336ZM7.63866 24.7083C7.50195 24.7766 7.50195 24.9817 7.63866 25.1184C7.77538 25.2551 7.9121 25.3235 8.04882 25.2551C8.11718 25.1868 8.11718 24.9817 8.04882 24.845C7.9121 24.7083 7.77538 24.6399 7.63866 24.7083Z" fill="#26235C"/>
</svg>
