<svg width="1537" height="785" viewBox="0 0 1537 785" fill="none" xmlns="http://www.w3.org/2000/svg">
<path d="M0 737C0 753.802 0 762.202 3.2698 768.62C6.14601 774.265 10.7354 778.854 16.3803 781.73C22.7976 785 31.1984 785 48 785H1455.54C1482.34 785 1495.74 785 1503.59 779.364C1510.43 774.446 1514.89 766.876 1515.88 758.505C1517.01 748.912 1510.51 737.188 1497.52 713.74L1187.79 154.649C1183.4 146.72 1181.21 142.755 1178.14 139.723C1175.42 137.038 1172.21 134.897 1168.69 133.415C1164.71 131.742 1160.21 131.233 1151.2 130.214L53.395 6.03958C34.9185 3.94968 25.6802 2.90473 18.5279 5.86479C12.2465 8.46439 7.0343 13.1203 3.74518 19.0697C0 25.844 0 35.1411 0 53.7354V737Z" fill="#26235C"/>
<mask id="mask0_268_89" style="mask-type:alpha" maskUnits="userSpaceOnUse" x="0" y="3" width="1517" height="782">
<path d="M0.000244141 739.998C0.000244141 753.976 0.000244141 760.965 2.28386 766.478C5.32868 773.829 11.1689 779.669 18.5197 782.714C24.0329 784.998 31.022 784.998 45.0002 784.998H1460.63C1482.91 784.998 1494.05 784.998 1500.97 781.044C1510.19 775.774 1515.94 766.018 1516.08 755.396C1516.19 747.429 1510.79 737.683 1499.99 718.191L1187.04 153.295C1183.39 146.692 1181.56 143.39 1179.13 140.75C1175.89 137.23 1171.85 134.536 1167.36 132.892C1163.99 131.66 1160.24 131.236 1152.74 130.387L50.058 5.66191C34.6893 3.92354 27.005 3.05436 20.8992 4.99826C12.7582 7.59012 6.10851 13.5301 2.61807 21.3282C0.000244141 27.1767 0.000244141 34.9101 0.000244141 50.3768V739.998Z" fill="#26235C"/>
</mask>
<g mask="url(#mask0_268_89)">
<g opacity="0.6">
<g opacity="0.2">
<path d="M861.045 704.547C837.333 688.057 816.41 668.57 799.673 646.085C821.99 638.59 842.912 628.096 861.045 616.104C885.454 599.615 906.377 579.378 923.115 556.143C934.273 563.638 946.827 569.634 961.472 574.131C980.303 579.378 1002.62 582.376 1029.12 582.376C1172.09 582.376 1196.5 496.182 1196.5 368.765L1196.5 56.2173L861.742 56.2173L861.742 279.572C861.742 383.755 842.912 460.205 759.92 484.939C753.643 487.188 745.972 488.687 738.998 490.186C736.208 471.448 735.511 451.961 735.511 432.473L735.51 -112.423L1324.13 -112.423L1324.13 432.473C1324.13 602.613 1229.98 751.766 1029.82 751.766C960.775 751.766 904.982 733.778 861.045 704.547Z" fill="white"/>
</g>
<g opacity="0.4">
<path d="M692.271 662.113C732.024 662.113 767.592 656.116 799.673 645.623C821.99 638.128 842.913 627.635 861.045 615.643C885.455 599.153 906.377 578.916 923.115 555.682C939.156 534.695 951.709 510.711 961.473 485.227C978.211 441.755 986.58 393.787 986.58 343.569L986.58 55.7558L861.743 55.7558L861.743 279.111C861.743 383.293 842.913 459.744 759.92 484.478C753.644 486.726 745.972 488.225 738.998 489.724C725.05 491.973 709.707 493.472 692.271 493.472C549.302 493.472 524.892 407.278 524.892 279.86L524.892 55.7558L734.814 55.7558L734.814 -112.885L397.963 -112.885L397.963 343.569C397.963 512.959 492.114 662.113 692.271 662.113Z" fill="white"/>
</g>
</g>
</g>
</svg>
