<svg width="60" height="60" viewBox="0 0 60 60" fill="none" xmlns="http://www.w3.org/2000/svg">
<path d="M60 30C60 46.5683 46.5683 60 30 60C13.4317 60 0 46.5683 0 30C0 13.4317 13.4317 0 30 0C46.5683 0 60 13.4317 60 30Z" fill="#FFCC4D"/>
<path d="M11.6666 38.3333C16.269 38.3333 19.9999 34.6023 19.9999 30C19.9999 25.3976 16.269 21.6666 11.6666 21.6666C7.06421 21.6666 3.33325 25.3976 3.33325 30C3.33325 34.6023 7.06421 38.3333 11.6666 38.3333Z" fill="#FF7892"/>
<path d="M48.3333 38.3333C52.9357 38.3333 56.6667 34.6023 56.6667 30C56.6667 25.3976 52.9357 21.6666 48.3333 21.6666C43.731 21.6666 40 25.3976 40 30C40 34.6023 43.731 38.3333 48.3333 38.3333Z" fill="#FF7892"/>
<path d="M45.5584 36.0484C45.2617 35.78 44.8184 35.7634 44.5001 36C44.4351 36.0484 37.9634 40.8334 30.0001 40.8334C22.0567 40.8334 15.5634 36.0484 15.5001 36C15.1817 35.7634 14.7384 35.7834 14.4417 36.0484C14.1467 36.315 14.0801 36.755 14.2851 37.095C14.5001 37.4534 19.6467 45.8334 30.0001 45.8334C40.3534 45.8334 45.5017 37.4534 45.7151 37.095C45.9201 36.7534 45.8551 36.315 45.5584 36.0484ZM13.3317 25C13.0817 25 12.8267 24.9434 12.5884 24.8234C11.7651 24.4117 11.4317 23.41 11.8434 22.5867C11.9301 22.4134 14.0401 18.3334 20.0001 18.3334C25.9617 18.3334 28.0701 22.415 28.1567 22.5884C28.5684 23.4117 28.2351 24.4134 27.4117 24.825C26.5917 25.2334 25.6034 24.9067 25.1851 24.0984C25.1134 23.965 23.8017 21.6667 20.0001 21.6667C16.1384 21.6667 14.8351 24.055 14.8234 24.0784C14.5317 24.6634 13.9434 25 13.3317 25ZM46.6684 25C46.0567 25 45.4684 24.6634 45.1751 24.0784C45.1334 24.0017 43.8317 21.6667 40.0001 21.6667C36.1684 21.6667 34.8667 24.0017 34.8134 24.1C34.3801 24.9017 33.3817 25.2167 32.5717 24.8C31.7634 24.38 31.4351 23.4017 31.8417 22.5867C31.9284 22.415 34.0384 18.3334 40.0001 18.3334C45.9617 18.3334 48.0717 22.415 48.1584 22.5884C48.5701 23.4117 48.2367 24.4134 47.4134 24.825C47.1734 24.9434 46.9184 25 46.6684 25Z" fill="#664500"/>
</svg>
