<svg width="31" height="32" viewBox="0 0 31 32" fill="none" xmlns="http://www.w3.org/2000/svg">
<path d="M15.647 8.03174C11.272 8.03174 7.78564 11.5864 7.78564 15.8931C7.78564 20.2681 11.272 23.7544 15.647 23.7544C19.9536 23.7544 23.5083 20.2681 23.5083 15.8931C23.5083 11.5864 19.9536 8.03174 15.647 8.03174ZM15.647 21.02C12.8442 21.02 10.52 18.7642 10.52 15.8931C10.52 13.0903 12.7759 10.8345 15.647 10.8345C18.4497 10.8345 20.7056 13.0903 20.7056 15.8931C20.7056 18.7642 18.4497 21.02 15.647 21.02ZM25.6274 7.7583C25.6274 6.73291 24.8071 5.9126 23.7817 5.9126C22.7563 5.9126 21.936 6.73291 21.936 7.7583C21.936 8.78369 22.7563 9.604 23.7817 9.604C24.8071 9.604 25.6274 8.78369 25.6274 7.7583ZM30.8227 9.604C30.686 7.14307 30.1392 4.95557 28.3618 3.17822C26.5845 1.40088 24.397 0.854004 21.936 0.717285C19.4067 0.580566 11.8188 0.580566 9.28954 0.717285C6.82861 0.854004 4.70947 1.40088 2.86376 3.17822C1.08642 4.95557 0.539543 7.14307 0.402824 9.604C0.266106 12.1333 0.266106 19.7212 0.402824 22.2505C0.539543 24.7114 1.08642 26.8306 2.86376 28.6763C4.70947 30.4536 6.82861 31.0005 9.28954 31.1372C11.8188 31.2739 19.4067 31.2739 21.936 31.1372C24.397 31.0005 26.5845 30.4536 28.3618 28.6763C30.1392 26.8306 30.686 24.7114 30.8227 22.2505C30.9595 19.7212 30.9595 12.1333 30.8227 9.604ZM27.5415 24.9165C27.063 26.2837 25.9692 27.3091 24.6704 27.856C22.6196 28.6763 17.8345 28.4712 15.647 28.4712C13.3911 28.4712 8.60595 28.6763 6.62353 27.856C5.25634 27.3091 4.23095 26.2837 3.68407 24.9165C2.86376 22.9341 3.06884 18.1489 3.06884 15.8931C3.06884 13.7056 2.86376 8.92041 3.68407 6.86963C4.23095 5.5708 5.25634 4.54541 6.62353 3.99854C8.60595 3.17822 13.3911 3.3833 15.647 3.3833C17.8345 3.3833 22.6196 3.17822 24.6704 3.99854C25.9692 4.47705 26.9946 5.5708 27.5415 6.86963C28.3618 8.92041 28.1567 13.7056 28.1567 15.8931C28.1567 18.1489 28.3618 22.9341 27.5415 24.9165Z" fill="#26235C"/>
</svg>
