<svg width="36" height="36" viewBox="0 0 36 36" fill="none" xmlns="http://www.w3.org/2000/svg">
<path d="M16.875 2.25H19.125V7.875H16.875V2.25ZM24.399 10.0125L28.3433 6.06825L29.934 7.659L25.9897 11.6033L24.399 10.0125ZM28.125 16.875H33.75V19.125H28.125V16.875ZM24.399 25.9875L25.9897 24.3979L29.934 28.3421L28.3433 29.9329L24.399 25.9875ZM16.875 28.125H19.125V33.75H16.875V28.125ZM6.06825 28.341L10.0125 24.3968L11.6033 25.9875L7.66012 29.9318L6.06825 28.341ZM2.25 16.875H7.875V19.125H2.25V16.875ZM6.06938 7.659L7.66012 6.06825L11.6044 10.0125L10.0125 11.6033L6.06938 7.659ZM18 11.25C16.665 11.25 15.3599 11.6459 14.2499 12.3876C13.1399 13.1293 12.2747 14.1835 11.7638 15.4169C11.2529 16.6503 11.1192 18.0075 11.3797 19.3169C11.6402 20.6262 12.283 21.829 13.227 22.773C14.171 23.717 15.3738 24.3599 16.6831 24.6203C17.9925 24.8808 19.3497 24.7471 20.5831 24.2362C21.8165 23.7253 22.8707 22.8601 23.6124 21.7501C24.3541 20.6401 24.75 19.335 24.75 18C24.75 16.2098 24.0388 14.4929 22.773 13.227C21.5071 11.9612 19.7902 11.25 18 11.25Z" fill="white"/>
</svg>
