<svg width="32" height="32" viewBox="0 0 32 32" fill="none" xmlns="http://www.w3.org/2000/svg">
<path d="M7.25732 31.3137V10.8743H0.899895V31.3137H7.25732ZM4.04443 8.13989C6.09521 8.13989 7.73583 6.43091 7.73583 4.38013C7.73583 2.39771 6.09521 0.75708 4.04443 0.75708C2.062 0.75708 0.421379 2.39771 0.421379 4.38013C0.421379 6.43091 2.062 8.13989 4.04443 8.13989ZM30.978 31.3137H31.0464V20.1028C31.0464 14.634 29.8159 10.3958 23.3901 10.3958C20.314 10.3958 18.2632 12.1047 17.3745 13.677H17.3061V10.8743H11.2222V31.3137H17.5796V21.1965C17.5796 18.5305 18.0581 16.0012 21.3393 16.0012C24.6206 16.0012 24.689 19.009 24.689 21.4016V31.3137H30.978Z" fill="#26235C"/>
</svg>
