<svg width="1059" height="765" viewBox="0 0 1059 765" fill="none" xmlns="http://www.w3.org/2000/svg">
<g opacity="0.6">
<g opacity="0.2">
<path d="M529.065 715.832C501.974 699.007 478.071 679.124 458.948 656.182C484.445 648.534 508.348 637.828 529.065 625.592C556.952 608.768 580.856 588.12 599.979 564.413C612.727 572.06 627.069 578.178 643.802 582.767C665.315 588.12 690.812 591.179 721.09 591.179C884.431 591.179 912.318 503.234 912.318 373.228L912.318 54.3312L529.862 54.3312L529.862 282.224C529.862 388.523 508.348 466.526 413.531 491.763C406.36 494.057 397.595 495.586 389.627 497.116C386.44 477.997 385.644 458.114 385.644 438.231L385.644 -117.735L1058.13 -117.735L1058.13 438.231C1058.13 611.827 950.564 764.01 721.887 764.01C643.005 764.01 579.262 745.656 529.065 715.832Z" fill="white"/>
</g>
<g opacity="0.4">
<path d="M336.243 672.535C381.66 672.535 422.296 666.417 458.948 655.711C484.445 648.064 508.349 637.357 529.065 625.121C556.953 608.297 580.856 587.649 599.979 563.942C618.305 542.529 632.647 518.058 643.802 492.057C662.925 447.702 672.487 398.758 672.487 347.521L672.487 53.8605L529.862 53.8605L529.862 281.753C529.862 388.052 508.349 466.055 413.532 491.292C406.36 493.586 397.596 495.116 389.628 496.645C373.692 498.939 356.163 500.469 336.243 500.469C172.903 500.469 145.015 412.524 145.015 282.518L145.015 53.8605L384.847 53.8605L384.847 -118.206L0.000244141 -118.206L0.000248953 347.521C0.000250739 520.352 107.566 672.535 336.243 672.535Z" fill="white"/>
</g>
</g>
</svg>
