<svg width="60" height="60" viewBox="0 0 60 60" fill="none" xmlns="http://www.w3.org/2000/svg">
<path d="M30 60C46.5685 60 60 46.5685 60 30C60 13.4315 46.5685 0 30 0C13.4315 0 0 13.4315 0 30C0 46.5685 13.4315 60 30 60Z" fill="#FFCC4D"/>
<path d="M39.1416 48.1316C39.1233 48.0583 37.2333 40.8333 29.9999 40.8333C22.7666 40.8333 20.8766 48.0583 20.8583 48.1316C20.7699 48.4866 20.9316 48.8499 21.2449 49.0383C21.5583 49.2249 21.9666 49.1816 22.2383 48.9383C22.2533 48.9249 23.9266 47.4999 29.9999 47.4999C35.9833 47.4999 37.6949 48.8833 37.7599 48.9383C37.9183 49.0883 38.1249 49.1666 38.3333 49.1666C38.4733 49.1666 38.6149 49.1316 38.7433 49.0599C39.0699 48.8733 39.2333 48.4949 39.1416 48.1316ZM18.7099 25.8533C18.1816 25.8533 17.6499 25.9183 17.1316 26.0466C12.3483 27.2249 11.2766 32.9149 11.2333 33.1583C11.1666 33.5299 11.3599 33.8966 11.7016 34.0583C11.8133 34.1099 11.9349 34.1366 12.0533 34.1366C12.2949 34.1366 12.5316 34.0316 12.6949 33.8366C12.7116 33.8166 14.3783 31.8733 18.3266 30.9016C19.5166 30.6083 20.6799 30.4599 21.7816 30.4599C23.6216 30.4599 24.6683 30.8816 24.6733 30.8833C24.7849 30.9299 24.8916 30.9499 25.0183 30.9499C25.4716 30.9699 25.8666 30.5816 25.8666 30.1166C25.8666 29.8416 25.7333 29.5983 25.5283 29.4466C24.9166 28.7216 22.2733 25.8533 18.7099 25.8533ZM41.2899 25.8533C41.8183 25.8533 42.3499 25.9183 42.8683 26.0466C47.6516 27.2249 48.7233 32.9149 48.7666 33.1583C48.8333 33.5299 48.6399 33.8966 48.2983 34.0583C48.1866 34.1099 48.0649 34.1366 47.9466 34.1366C47.7049 34.1366 47.4683 34.0316 47.3049 33.8366C47.2883 33.8166 45.6216 31.8733 41.6733 30.9016C40.4833 30.6083 39.3199 30.4599 38.2183 30.4599C36.3783 30.4599 35.3333 30.8816 35.3266 30.8833C35.2149 30.9299 35.1083 30.9499 34.9833 30.9499C34.5299 30.9699 34.1349 30.5816 34.1349 30.1166C34.1349 29.8416 34.2683 29.5983 34.4733 29.4466C35.0833 28.7216 37.7266 25.8533 41.2899 25.8533Z" fill="#664500"/>
</svg>
