<svg width="60" height="60" viewBox="0 0 60 60" fill="none" xmlns="http://www.w3.org/2000/svg">
<path d="M30 60C46.5685 60 60 46.5685 60 30C60 13.4315 46.5685 0 30 0C13.4315 0 0 13.4315 0 30C0 46.5685 13.4315 60 30 60Z" fill="#FFCC4D"/>
<path d="M17.525 39.3684C17.6 39.6667 19.4717 46.6667 30 46.6667C40.53 46.6667 42.4 39.6667 42.475 39.3684C42.5667 39.0067 42.4034 38.6317 42.08 38.445C41.755 38.26 41.3484 38.315 41.08 38.5734C41.0484 38.605 37.8234 41.6667 30 41.6667C22.1767 41.6667 18.95 38.605 18.92 38.575C18.76 38.4167 18.5467 38.3334 18.3334 38.3334C18.1934 38.3334 18.0517 38.3684 17.9234 38.44C17.5967 38.6267 17.4334 39.005 17.525 39.3684Z" fill="#664500"/>
<path d="M19.9999 28.3333C22.3011 28.3333 24.1666 25.7216 24.1666 22.5C24.1666 19.2783 22.3011 16.6666 19.9999 16.6666C17.6987 16.6666 15.8333 19.2783 15.8333 22.5C15.8333 25.7216 17.6987 28.3333 19.9999 28.3333Z" fill="#664500"/>
<path d="M39.9999 28.3333C42.3011 28.3333 44.1666 25.7216 44.1666 22.5C44.1666 19.2783 42.3011 16.6666 39.9999 16.6666C37.6987 16.6666 35.8333 19.2783 35.8333 22.5C35.8333 25.7216 37.6987 28.3333 39.9999 28.3333Z" fill="#664500"/>
</svg>
