<svg width="60" height="60" viewBox="0 0 60 60" fill="none" xmlns="http://www.w3.org/2000/svg">
<path d="M60 30C60 46.5683 46.5683 60 30 60C13.4317 60 0 46.5683 0 30C0 13.4317 13.4317 0 30 0C46.5683 0 60 13.4317 60 30Z" fill="#FFCC4D"/>
<path d="M29.9999 50C33.6818 50 36.6666 46.2691 36.6666 41.6667C36.6666 37.0643 33.6818 33.3334 29.9999 33.3334C26.318 33.3334 23.3333 37.0643 23.3333 41.6667C23.3333 46.2691 26.318 50 29.9999 50Z" fill="#664500"/>
<path d="M19.9999 28.3333C22.3011 28.3333 24.1666 25.7216 24.1666 22.5C24.1666 19.2783 22.3011 16.6666 19.9999 16.6666C17.6987 16.6666 15.8333 19.2783 15.8333 22.5C15.8333 25.7216 17.6987 28.3333 19.9999 28.3333Z" fill="#664500"/>
<path d="M39.9999 28.3333C42.3011 28.3333 44.1666 25.7216 44.1666 22.5C44.1666 19.2783 42.3011 16.6666 39.9999 16.6666C37.6987 16.6666 35.8333 19.2783 35.8333 22.5C35.8333 25.7216 37.6987 28.3333 39.9999 28.3333Z" fill="#664500"/>
</svg>
