<svg width="36" height="30" viewBox="0 0 36 30" fill="none" xmlns="http://www.w3.org/2000/svg">
<path d="M31.9805 7.93164C33.3476 6.90625 34.5781 5.67578 35.5351 4.24023C34.3047 4.78711 32.8691 5.19727 31.4336 5.33398C32.9375 4.44531 34.0312 3.07812 34.5781 1.36914C33.2109 2.18945 31.6387 2.80469 30.0664 3.14648C28.6992 1.71094 26.8535 0.890625 24.8027 0.890625C20.8379 0.890625 17.625 4.10352 17.625 8.06836C17.625 8.61523 17.6934 9.16211 17.8301 9.70898C11.8828 9.36719 6.55077 6.49609 2.99609 2.18945C2.38085 3.21484 2.03905 4.44531 2.03905 5.8125C2.03905 8.27344 3.26952 10.4609 5.25195 11.7598C4.08984 11.6914 2.92773 11.418 1.9707 10.8711V10.9395C1.9707 14.4258 4.43163 17.2969 7.71288 17.9805C7.16601 18.1172 6.48241 18.2539 5.86718 18.2539C5.38866 18.2539 4.97851 18.1855 4.49999 18.1172C5.38866 20.9883 8.05468 23.0391 11.1992 23.1074C8.73827 25.0215 5.6621 26.1836 2.31249 26.1836C1.69726 26.1836 1.15038 26.1152 0.603508 26.0469C3.74804 28.0977 7.5078 29.2598 11.6094 29.2598C24.8027 29.2598 31.9805 18.3906 31.9805 8.88867C31.9805 8.54688 31.9805 8.27344 31.9805 7.93164Z" fill="#26235C"/>
</svg>
