<svg width="38" height="41" viewBox="0 0 38 41" fill="none" xmlns="http://www.w3.org/2000/svg">
<g clip-path="url(#clip0_265_88)">
<path fill-rule="evenodd" clip-rule="evenodd" d="M37.1292 10.1612C37.392 9.2285 37.1292 8.54175 35.8704 8.54175H31.7142C30.6565 8.54175 30.1688 9.13454 29.9044 9.78883C29.9044 9.78883 27.7907 15.2487 24.7966 18.7952C23.8276 19.8236 23.3874 20.1499 22.8586 20.1499C22.5942 20.1499 22.1968 19.8236 22.1968 18.8891V10.1612C22.1968 9.04058 21.9054 8.54175 21.0251 8.54175H14.4891C13.8288 8.54175 13.4314 9.06108 13.4314 9.55479C13.4314 10.6157 14.9293 10.8617 15.0828 13.8478V20.3361C15.0828 21.7591 14.8406 22.0171 14.3117 22.0171C12.9026 22.0171 9.47467 16.5316 7.44008 10.2552C7.04583 9.03375 6.64683 8.54175 5.58442 8.54175H1.425C0.2375 8.54175 0 9.13454 0 9.78883C0 10.9539 1.40917 16.7417 6.56292 24.3968C9.99875 29.6243 14.8358 32.4584 19.2423 32.4584C21.8848 32.4584 22.211 31.8298 22.211 30.745V26.7936C22.211 25.5345 22.4612 25.2834 23.2988 25.2834C23.9163 25.2834 24.9723 25.6114 27.4392 28.1312C30.2575 31.1191 30.7214 32.4584 32.3079 32.4584H36.4642C37.6517 32.4584 38.247 31.8298 37.905 30.5861C37.5282 29.3493 36.1823 27.5538 34.3979 25.4235C33.4289 24.2106 31.9754 22.9037 31.5337 22.2494C30.9178 21.4106 31.0935 21.0365 31.5337 20.29C31.5337 20.29 36.6003 12.7289 37.1276 10.1612H37.1292Z" fill="#26235C"/>
</g>
<defs>
<clipPath id="clip0_265_88">
<rect width="38" height="41" fill="white"/>
</clipPath>
</defs>
</svg>
